<?xml version="1.0" encoding="utf-8"?>
<!-- Generator: Adobe Illustrator 21.0.0, SVG Export Plug-In . SVG Version: 6.00 Build 0)  -->
<svg version="1.1" id="Слой_1" xmlns="http://www.w3.org/2000/svg" xmlns:xlink="http://www.w3.org/1999/xlink" x="0px" y="0px"
	 viewBox="0 0 372.3 409.6" style="enable-background:new 0 0 372.3 409.6;" xml:space="preserve">
<style type="text/css">
	.st0{fill:#ff8142;}
</style>
<title>66</title>
<g id="Слой_2">
	<g id="Слой_1-2">
		<path class="st0" d="M365.7,67.5l-0.5-0.1C303.2,56.6,243.9,34.1,190.4,1.2c-2.6-1.6-5.8-1.6-8.4,0C128.8,34,69.8,56.4,8.2,67.2
			l-1.6,0.3c-3.8,0.7-6.6,4-6.6,7.9v104.7c0,110.3,76.7,205.7,184.4,229.3c1.1,0.2,2.3,0.2,3.4,0C295.6,385.7,372.3,290.3,372.3,180
			V75.4C372.3,71.5,369.5,68.1,365.7,67.5z M356.3,180c0,101.4-71.5,190.9-170.2,213.4C87.5,370.9,16,281.5,16,180.1V82
			c60.2-11.1,117.8-33,170.2-64.6c52.4,31.5,110,53.4,170.2,64.6V180z"/>
		<path class="st0" d="M150.8,59.4"/>
	</g>
</g>
</svg>
