<svg xmlns="http://www.w3.org/2000/svg" viewBox="0 0 22.42 20.6"><defs><style>.cls-1{fill:#399c65;}</style></defs><title>100-150 icon</title><g id="Слой_2" data-name="Слой 2"><g id="Слой_1-2" data-name="Слой 1"><path class="cls-1" style="fill:#4db479;" d="M21.7,10.66a.44.44,0,0,0,.27.09.42.42,0,0,0,.2,0,.45.45,0,0,0,.25-.4V8.51a.46.46,0,0,0-.18-.36L20.16,6.59V2.73a.45.45,0,0,0-.45-.45h-3.1a.45.45,0,0,0-.45.45v.87L11.5.09a.45.45,0,0,0-.54,0L.22,8.15A.46.46,0,0,0,0,8.51v1.8a.45.45,0,0,0,.72.36l.18-.13v9.18H.45a.45.45,0,1,0,0,.9H22a.45.45,0,1,0,0-.9h-.45V10.53ZM17.06,3.17h2.2V5.92l-2.2-1.65ZM13,19.71H9.44V12.14H13Zm7.65-11V9.86a.7.7,0,0,0,0,.09v9.76H13.87a.17.17,0,0,0,0,0v-8a.45.45,0,0,0-.45-.45H9a.45.45,0,0,0-.45.45v8s0,0,0,0H1.83V10a.75.75,0,0,0,0-.09V8.74l-.89.67V8.73L11.23,1,21.52,8.73v.68Z"/><path class="cls-1" style="fill:#4db479;" d="M11.21,5.39a2.24,2.24,0,1,0,2.24,2.24A2.24,2.24,0,0,0,11.21,5.39Zm0,3.59a1.35,1.35,0,1,1,1.35-1.35A1.35,1.35,0,0,1,11.21,9Z"/><path class="cls-1" style="fill:#4db479;" d="M7.21,16.6V11.7a.45.45,0,0,0-.45-.45H3.62a.45.45,0,0,0-.45.45V16.6a.45.45,0,0,0,0,.9h4a.45.45,0,0,0,0-.9ZM6.31,13h0v.9h0V16.6H4.07V12.14H6.31Z"/><path class="cls-1" style="fill:#4db479;" d="M19.28,16.6V11.7a.45.45,0,0,0-.45-.45H15.69a.45.45,0,0,0-.45.45V16.6a.45.45,0,0,0,0,.9h4a.45.45,0,0,0,0-.9Zm-.9,0H16.14V12.14h2.24Z"/></g></g></svg>