<svg xmlns="http://www.w3.org/2000/svg" viewBox="0 0 22.49 20.6"><defs><style>.cls-1{fill:#399c65;}</style></defs><title>50-100 icon</title><g id="Слой_2" data-name="Слой 2"><g id="Слой_1-2" data-name="Слой 1"><path class="cls-1" style="fill:#4db479;" d="M9,14.34H9v-5a.45.45,0,0,0-.45-.45H4.12a.45.45,0,0,0-.45.45v5h0a.45.45,0,1,0,0,.9H9a.45.45,0,0,0,0-.9Zm-.93,0H4.57V9.83H8.09Z"/><path class="cls-1" style="fill:#4db479;" d="M22,19.71h-.51V7.89l.25.12a.43.43,0,0,0,.2,0A.46.46,0,0,0,22.22,8a.45.45,0,0,0,.21-.38V5.82a.44.44,0,0,0-.25-.4l-2-1V.89a.45.45,0,0,0-.45-.45h-3.1a.45.45,0,0,0-.45.45V2.42L11.44,0A.46.46,0,0,0,11,0L.3,5.42a.44.44,0,0,0-.25.4v1.8A.45.45,0,0,0,.27,8,.44.44,0,0,0,.7,8L1,7.89V19.71H.45a.45.45,0,0,0,0,.9H22a.45.45,0,0,0,0-.9Zm-5-18.37h2.21V4l-2.21-1.1Zm-.46,18.37H11.69V9.83h4.92Zm4,0H17.51V9.38a.45.45,0,0,0-.45-.45H11.24a.45.45,0,0,0-.45.45V19.71h-9V6.45L1,6.9V6.1L11.24.95,21.54,6.1v.8l-.9-.45Z"/></g></g></svg>