<svg xmlns="http://www.w3.org/2000/svg" viewBox="0 0 490.67 320"><defs><style>.cls-1{fill:#399c65;}</style></defs><title>family_icon</title><g id="Слой_2" data-name="Слой 2"><g id="Layer_1" data-name="Layer 1"><path class="cls-1" style="fill:#4db479;" d="M245.33,149.33A74.67,74.67,0,1,1,320,74.67,74.75,74.75,0,0,1,245.33,149.33Zm0-128a53.33,53.33,0,1,0,53.33,53.33A53.41,53.41,0,0,0,245.33,21.33Z"/><path class="cls-1" style="fill:#4db479;" d="M394.67,192A53.33,53.33,0,1,1,448,138.67,53.41,53.41,0,0,1,394.67,192Zm0-85.33a32,32,0,1,0,32,32A32,32,0,0,0,394.67,106.67Z"/><path class="cls-1" style="fill:#4db479;" d="M97.51,192a53.33,53.33,0,1,1,53.33-53.33A53.41,53.41,0,0,1,97.51,192Zm0-85.33a32,32,0,1,0,32,32A32,32,0,0,0,97.51,106.67Z"/><path class="cls-1" style="fill:#4db479;" d="M490.67,309.33a10.67,10.67,0,1,1-21.34,0A74.7,74.7,0,0,0,365.68,240.5,137.84,137.84,0,0,1,384,309.33a10.67,10.67,0,1,1-21.33,0,117.33,117.33,0,0,0-234.67,0,10.67,10.67,0,1,1-21.33,0A137.84,137.84,0,0,1,125,240.5,74.7,74.7,0,0,0,21.33,309.33a10.67,10.67,0,1,1-21.33,0,96,96,0,0,1,137.2-86.72,138.52,138.52,0,0,1,216.27,0,96,96,0,0,1,137.2,86.72Z"/></g></g></svg>