<svg xmlns="http://www.w3.org/2000/svg" viewBox="0 0 79.84 100.8"><defs><style>.cls-1{fill:#fff;}</style></defs><title>project_icon</title><g id="Слой_2" data-name="Слой 2"><g id="Слой_1-2" data-name="Слой 1"><path class="cls-1" style="fill:#fff" d="M60.32,0H21a3.24,3.24,0,0,0-3.28,3.28V7.84H3.28A3.25,3.25,0,0,0,0,11.12v86.4a3.25,3.25,0,0,0,3.28,3.28H76.56a3.25,3.25,0,0,0,3.28-3.28V11.12a3.25,3.25,0,0,0-3.28-3.28h-13V3.28A3.25,3.25,0,0,0,60.32,0Zm-36,11.12V6.56H57V16.88H24.32Zm49,3.28V94.24H6.56V14.4h11.2v5.76A3.24,3.24,0,0,0,21,23.44H60.32a3.25,3.25,0,0,0,3.28-3.28V14.4Zm0,0"/><path class="cls-1" style="fill:#fff" d="M64.32,56.8H17a3.28,3.28,0,0,0,0,6.56H64.32a3.28,3.28,0,1,0,0-6.56Zm0,0"/><path class="cls-1" style="fill:#fff" d="M40.72,72.64H17a3.28,3.28,0,0,0,0,6.56h23.6a3.28,3.28,0,0,0,.08-6.56Zm0,0"/><path class="cls-1" style="fill:#fff" d="M13.76,44.16A3.24,3.24,0,0,0,17,47.44H64.32a3.28,3.28,0,1,0,0-6.56H17a3.29,3.29,0,0,0-3.28,3.28Zm0,0"/></g></g></svg>